<mxfile host="app.diagrams.net" modified="2022-05-23T10:08:37.400Z" agent="5.0 (Windows NT 10.0; Win64; x64) AppleWebKit/537.36 (KHTML, like Gecko) Chrome/101.0.0.0 Safari/537.36" etag="HhJ4CJ7yrLRg5bCm_m-t" version="16.6.1" type="github">
  <diagram id="oV1GM_KYjO7_leMFCYR5" name="Page-1">
    <mxGraphModel dx="1038" dy="579" grid="1" gridSize="10" guides="1" tooltips="1" connect="1" arrows="1" fold="1" page="1" pageScale="1" pageWidth="827" pageHeight="1169" math="0" shadow="0">
      <root>
        <mxCell id="0" />
        <mxCell id="1" parent="0" />
        <mxCell id="qbnfzro3lzfsH0DHtN0R-1" value="Сбор данных" style="shape=process;whiteSpace=wrap;html=1;backgroundOutline=1;" parent="1" vertex="1">
          <mxGeometry x="310" y="90" width="130" height="60" as="geometry" />
        </mxCell>
        <mxCell id="5Lt70kJrUT7F3aSRLqDk-2" style="edgeStyle=orthogonalEdgeStyle;rounded=0;orthogonalLoop=1;jettySize=auto;html=1;exitX=0;exitY=0.25;exitDx=0;exitDy=0;entryX=1;entryY=0.25;entryDx=0;entryDy=0;" edge="1" parent="1" source="qbnfzro3lzfsH0DHtN0R-2" target="5Lt70kJrUT7F3aSRLqDk-1">
          <mxGeometry relative="1" as="geometry" />
        </mxCell>
        <mxCell id="qbnfzro3lzfsH0DHtN0R-2" value="Хранилище данных" style="shape=process;whiteSpace=wrap;html=1;backgroundOutline=1;" parent="1" vertex="1">
          <mxGeometry x="310" y="190" width="130" height="60" as="geometry" />
        </mxCell>
        <mxCell id="qbnfzro3lzfsH0DHtN0R-3" value="Прогнозирование параметров почвы" style="shape=process;whiteSpace=wrap;html=1;backgroundOutline=1;" parent="1" vertex="1">
          <mxGeometry x="310" y="290" width="130" height="60" as="geometry" />
        </mxCell>
        <mxCell id="qbnfzro3lzfsH0DHtN0R-4" value="" style="endArrow=classic;html=1;rounded=0;exitX=0.5;exitY=1;exitDx=0;exitDy=0;entryX=0.5;entryY=0;entryDx=0;entryDy=0;" parent="1" source="qbnfzro3lzfsH0DHtN0R-1" target="qbnfzro3lzfsH0DHtN0R-2" edge="1">
          <mxGeometry width="50" height="50" relative="1" as="geometry">
            <mxPoint x="390" y="320" as="sourcePoint" />
            <mxPoint x="440" y="270" as="targetPoint" />
          </mxGeometry>
        </mxCell>
        <mxCell id="qbnfzro3lzfsH0DHtN0R-7" value="" style="endArrow=classic;html=1;rounded=0;entryX=0.25;entryY=0;entryDx=0;entryDy=0;exitX=0.25;exitY=1;exitDx=0;exitDy=0;" parent="1" source="qbnfzro3lzfsH0DHtN0R-2" target="qbnfzro3lzfsH0DHtN0R-3" edge="1">
          <mxGeometry width="50" height="50" relative="1" as="geometry">
            <mxPoint x="300" y="310" as="sourcePoint" />
            <mxPoint x="350" y="260" as="targetPoint" />
          </mxGeometry>
        </mxCell>
        <mxCell id="qbnfzro3lzfsH0DHtN0R-8" value="" style="endArrow=classic;html=1;rounded=0;exitX=0.75;exitY=0;exitDx=0;exitDy=0;entryX=0.75;entryY=1;entryDx=0;entryDy=0;" parent="1" source="qbnfzro3lzfsH0DHtN0R-3" target="qbnfzro3lzfsH0DHtN0R-2" edge="1">
          <mxGeometry width="50" height="50" relative="1" as="geometry">
            <mxPoint x="370" y="300" as="sourcePoint" />
            <mxPoint x="408" y="270" as="targetPoint" />
          </mxGeometry>
        </mxCell>
        <mxCell id="qbnfzro3lzfsH0DHtN0R-9" value="Определение времени следующего полива" style="shape=process;whiteSpace=wrap;html=1;backgroundOutline=1;" parent="1" vertex="1">
          <mxGeometry x="490" y="190" width="120" height="60" as="geometry" />
        </mxCell>
        <mxCell id="qbnfzro3lzfsH0DHtN0R-10" value="" style="endArrow=classic;html=1;rounded=0;entryX=0;entryY=0.25;entryDx=0;entryDy=0;exitX=1;exitY=0.25;exitDx=0;exitDy=0;" parent="1" source="qbnfzro3lzfsH0DHtN0R-2" target="qbnfzro3lzfsH0DHtN0R-9" edge="1">
          <mxGeometry width="50" height="50" relative="1" as="geometry">
            <mxPoint x="410" y="270" as="sourcePoint" />
            <mxPoint x="460" y="220" as="targetPoint" />
          </mxGeometry>
        </mxCell>
        <mxCell id="qbnfzro3lzfsH0DHtN0R-12" value="" style="endArrow=classic;html=1;rounded=0;entryX=1;entryY=0.75;entryDx=0;entryDy=0;exitX=0;exitY=0.75;exitDx=0;exitDy=0;" parent="1" source="qbnfzro3lzfsH0DHtN0R-9" target="qbnfzro3lzfsH0DHtN0R-2" edge="1">
          <mxGeometry width="50" height="50" relative="1" as="geometry">
            <mxPoint x="550" y="310" as="sourcePoint" />
            <mxPoint x="600" y="260" as="targetPoint" />
          </mxGeometry>
        </mxCell>
        <mxCell id="5Lt70kJrUT7F3aSRLqDk-3" style="edgeStyle=orthogonalEdgeStyle;rounded=0;orthogonalLoop=1;jettySize=auto;html=1;exitX=1;exitY=0.75;exitDx=0;exitDy=0;entryX=0;entryY=0.75;entryDx=0;entryDy=0;" edge="1" parent="1" source="5Lt70kJrUT7F3aSRLqDk-1" target="qbnfzro3lzfsH0DHtN0R-2">
          <mxGeometry relative="1" as="geometry" />
        </mxCell>
        <mxCell id="5Lt70kJrUT7F3aSRLqDk-1" value="Автоматический полив*" style="shape=process;whiteSpace=wrap;html=1;backgroundOutline=1;" vertex="1" parent="1">
          <mxGeometry x="140" y="190" width="120" height="60" as="geometry" />
        </mxCell>
      </root>
    </mxGraphModel>
  </diagram>
</mxfile>
